<svg width="111" height="110" viewBox="0 0 111 110" fill="none" xmlns="http://www.w3.org/2000/svg">
<path d="M55.6569 0C25.2694 0 0.630127 24.5851 0.630127 54.9059C0.630127 85.2266 25.2694 109.812 55.6569 109.812C86.0445 109.812 110.684 85.2266 110.684 54.9059C110.684 24.5851 86.0445 0 55.6569 0ZM82.1017 41.3877C82.1386 41.9638 82.1386 42.5643 82.1386 43.1526C82.1386 61.144 68.4064 81.8686 43.3127 81.8686C35.5746 81.8686 28.4015 79.6258 22.3583 75.7652C23.4638 75.8877 24.5201 75.9368 25.6501 75.9368C32.0372 75.9368 37.9083 73.7798 42.5881 70.1275C36.5941 70.005 31.5581 66.0831 29.8385 60.6906C31.9389 60.997 33.8304 60.997 35.9922 60.4455C32.9059 59.8198 30.1318 58.1473 28.1413 55.7121C26.1507 53.2769 25.0665 50.2291 25.0728 47.0867V46.9151C26.8784 47.9323 29.0033 48.5574 31.2265 48.6432C29.3576 47.4004 27.8249 45.7166 26.7643 43.7412C25.7037 41.7658 25.148 39.5598 25.1465 37.3188C25.1465 34.7819 25.8098 32.4655 27.0012 30.4556C30.4269 34.6634 34.7017 38.1049 39.5476 40.5564C44.3936 43.0078 49.7023 44.4144 55.1288 44.6845C53.2004 35.4314 60.1279 27.9432 68.4556 27.9432C72.3861 27.9432 75.9235 29.5854 78.4169 32.2327C81.4999 31.6567 84.4477 30.5046 87.0762 28.9604C86.0568 32.1101 83.9196 34.7696 81.0823 36.4487C83.8336 36.1545 86.4867 35.3947 88.9432 34.3284C87.0885 37.0492 84.7671 39.4636 82.1017 41.3877Z" fill="white"/>
</svg>
