<svg width="111" height="110" viewBox="0 0 111 110" fill="none" xmlns="http://www.w3.org/2000/svg">
<path d="M78.1971 38.0395C77.7196 36.8055 76.9884 35.685 76.0505 34.7502C75.1127 33.8154 73.989 33.0869 72.7518 32.6118C71.0483 31.9822 69.249 31.6495 67.4325 31.6281C64.4118 31.4908 63.5061 31.4565 55.854 31.4565C48.2018 31.4565 47.2961 31.4908 44.2754 31.6281C42.457 31.6488 40.6557 31.9816 38.9504 32.6118C37.7137 33.0882 36.5908 33.8178 35.6539 34.7537C34.717 35.6895 33.987 36.8107 33.5108 38.0452C32.8799 39.7449 32.5464 41.5403 32.5249 43.3527C32.3873 46.3668 32.3529 47.2705 32.3529 54.9058C32.3529 62.5412 32.3873 63.4448 32.5249 66.459C32.5457 68.2734 32.8792 70.0707 33.5108 71.7722C33.9883 73.0062 34.7195 74.1267 35.6574 75.0615C36.5953 75.9963 37.719 76.7248 38.9562 77.1999C40.6597 77.8295 42.4589 78.1622 44.2754 78.1836C47.2961 78.3209 48.2018 78.3495 55.854 78.3495C63.5061 78.3495 64.4118 78.3209 67.4325 78.1779C69.2506 78.159 71.0518 77.8282 72.7575 77.1999C73.9942 76.7235 75.1171 75.9938 76.054 75.058C76.9909 74.1222 77.7209 73.001 78.1971 71.7665C78.8281 70.0668 79.1616 68.2714 79.183 66.459C79.3206 63.4448 79.3493 62.5412 79.3493 54.9058C79.3493 47.2705 79.3206 46.3668 79.1773 43.3527C79.1583 41.5387 78.8268 39.7414 78.1971 38.0395ZM55.854 69.5932C52.9427 69.5932 50.0968 68.7318 47.6762 67.1179C45.2555 65.504 43.3689 63.2102 42.2548 60.5264C41.1407 57.8427 40.8492 54.8896 41.4171 52.0405C41.9851 49.1914 43.387 46.5744 45.4456 44.5203C47.5042 42.4663 50.127 41.0675 52.9823 40.5007C55.8376 39.934 58.7973 40.2249 61.4869 41.3365C64.1766 42.4482 66.4755 44.3307 68.0929 46.746C69.7103 49.1613 70.5736 52.001 70.5736 54.9058C70.5736 58.8012 69.0228 62.5369 66.2623 65.2913C63.5019 68.0458 59.7579 69.5932 55.854 69.5932ZM71.1526 43.0725C70.4724 43.0725 69.8074 42.8712 69.2419 42.4942C68.6763 42.1171 68.2355 41.5811 67.9752 40.9541C67.7149 40.3271 67.6468 39.6371 67.7795 38.9714C67.9122 38.3057 68.2397 37.6943 68.7207 37.2144C69.2017 36.7344 69.8145 36.4076 70.4816 36.2752C71.1487 36.1428 71.8402 36.2107 72.4687 36.4705C73.0971 36.7302 73.6342 37.17 74.0121 37.7344C74.39 38.2987 74.5917 38.9622 74.5917 39.6409C74.5917 40.551 74.2294 41.4238 73.5844 42.0674C72.9394 42.7109 72.0647 43.0725 71.1526 43.0725ZM65.4091 54.9058C65.4091 56.7915 64.8487 58.6349 63.7988 60.2027C62.7489 61.7706 61.2565 62.9927 59.5106 63.7143C57.7646 64.4359 55.8434 64.6247 53.9898 64.2568C52.1363 63.8889 50.4338 62.9809 49.0974 61.6475C47.7611 60.3141 46.8511 58.6153 46.4824 56.7659C46.1137 54.9164 46.3029 52.9994 47.0261 51.2573C47.7493 49.5151 48.9741 48.0261 50.5454 46.9785C52.1167 45.9308 53.9641 45.3717 55.854 45.3717C58.3882 45.3717 60.8185 46.3762 62.6105 48.1642C64.4024 49.9522 65.4091 52.3772 65.4091 54.9058ZM55.854 0C44.9707 0 34.3318 3.22017 25.2827 9.2533C16.2336 15.2864 9.18069 23.8616 5.01584 33.8943C0.850991 43.927 -0.238723 54.9668 1.8845 65.6174C4.00772 76.2681 9.24851 86.0514 16.9441 93.7301C24.6398 101.409 34.4446 106.638 45.1188 108.757C55.7929 110.875 66.857 109.788 76.9118 105.632C86.9666 101.477 95.5606 94.4391 101.607 85.4099C107.653 76.3807 110.881 65.7652 110.881 54.9058C110.881 40.3439 105.083 26.3784 94.7638 16.0816C84.4442 5.78471 70.448 0 55.854 0ZM84.3418 66.6934C84.2933 69.0666 83.8417 71.4143 83.0062 73.6367C82.2701 75.536 81.1444 77.2609 79.7013 78.7008C78.2582 80.1407 76.5296 81.2639 74.6261 81.9984C72.4006 82.8314 70.0497 83.282 67.6733 83.3311C64.6124 83.4683 63.638 83.5026 55.854 83.5026C48.07 83.5026 47.0955 83.4683 44.0347 83.3311C41.6582 83.282 39.3073 82.8314 37.0818 81.9984C35.1783 81.2639 33.4497 80.1407 32.0066 78.7008C30.5635 77.2609 29.4378 75.536 28.7017 73.6367C27.8669 71.4161 27.4153 69.0704 27.3661 66.6992C27.2286 63.645 27.1942 62.6727 27.1942 54.9058C27.1942 47.139 27.2286 46.1667 27.3661 43.1125C27.4135 40.7417 27.8631 38.3959 28.6959 36.1749C29.432 34.2741 30.5583 32.5477 32.0024 31.1068C33.4466 29.6658 35.1767 28.542 37.0818 27.8075C39.3077 26.9765 41.6586 26.5279 44.0347 26.4806C47.0955 26.3434 48.07 26.3091 55.854 26.3091C63.638 26.3091 64.6124 26.3434 67.6733 26.4806C70.0494 26.5279 72.4003 26.9765 74.6261 27.8075C76.5301 28.5427 78.2592 29.6667 79.7023 31.1077C81.1454 32.5486 82.2708 34.2746 83.0062 36.1749C83.841 38.3956 84.2926 40.7413 84.3418 43.1125C84.4794 46.1667 84.5137 47.139 84.5137 54.9058C84.5137 62.6727 84.4794 63.6393 84.3418 66.6934Z" fill="white"/>
</svg>
