<svg width="111" height="110" viewBox="0 0 111 110" fill="none" xmlns="http://www.w3.org/2000/svg">
<path d="M64.4436 53.9507L51.5697 47.9568C50.4462 47.4364 49.5234 48.0197 49.5234 49.2609V60.5509C49.5234 61.792 50.4462 62.3753 51.5697 61.8549L64.4379 55.861C65.5671 55.3348 65.5671 54.4769 64.4436 53.9507ZM55.2553 0C24.8645 0 0.228516 24.5818 0.228516 54.9059C0.228516 85.2299 24.8645 109.812 55.2553 109.812C85.6462 109.812 110.282 85.2299 110.282 54.9059C110.282 24.5818 85.6462 0 55.2553 0ZM55.2553 77.2114C27.0885 77.2114 26.5955 74.6777 26.5955 54.9059C26.5955 35.134 27.0885 32.6004 55.2553 32.6004C83.4222 32.6004 83.9151 35.134 83.9151 54.9059C83.9151 74.6777 83.4222 77.2114 55.2553 77.2114Z" fill="white"/>
</svg>
