<svg width="80" height="60" viewBox="0 0 80 60" fill="none" xmlns="http://www.w3.org/2000/svg">
<g clip-path="url(#clip0_9_12)">
<path d="M40.0001 5C21.6001 5 6.66675 16.2 6.66675 30C6.66675 43.8 21.6001 55 40.0001 55C58.4001 55 73.3334 43.8 73.3334 30C73.3334 16.2 58.4001 5 40.0001 5ZM40.0001 12.5C45.5334 12.5 50.0001 15.85 50.0001 20C50.0001 24.15 45.5334 27.5 40.0001 27.5C34.4667 27.5 30.0001 24.15 30.0001 20C30.0001 15.85 34.4667 12.5 40.0001 12.5ZM40.0001 48C31.6667 48 24.3001 44.8 20.0001 39.95C20.1001 34.975 33.3334 32.25 40.0001 32.25C46.6334 32.25 59.9001 34.975 60.0001 39.95C55.7001 44.8 48.3334 48 40.0001 48Z" fill="black"/>
</g>
<defs>
<clipPath id="clip0_9_12">
<rect width="80" height="60" fill="white"/>
</clipPath>
</defs>
</svg>
