<svg width="79" height="60" viewBox="0 0 79 60" fill="none" xmlns="http://www.w3.org/2000/svg">
<g clip-path="url(#clip0_9_15)">
<path d="M36.2084 22.5H42.7917V15H52.6667V10H42.7917V2.5H36.2084V10H26.3334V15H36.2084V22.5ZM23.0417 45C19.4209 45 16.4913 47.25 16.4913 50C16.4913 52.75 19.4209 55 23.0417 55C26.6626 55 29.6251 52.75 29.6251 50C29.6251 47.25 26.6626 45 23.0417 45ZM55.9584 45C52.3376 45 49.408 47.25 49.408 50C49.408 52.75 52.3376 55 55.9584 55C59.5793 55 62.5417 52.75 62.5417 50C62.5417 47.25 59.5793 45 55.9584 45ZM26.6626 32.5H51.1855C53.6543 32.5 55.8267 31.475 56.9459 29.925L69.6517 12.4L63.9243 10L51.1855 27.5H28.078L14.0555 5H3.29175V10H9.87508L21.7251 28.975L11.9159 42.5H62.5417V37.5H23.0417L26.6626 32.5Z" fill="black"/>
</g>
<defs>
<clipPath id="clip0_9_15">
<rect width="79" height="60" fill="white"/>
</clipPath>
</defs>
</svg>
