<svg width="78" height="60" viewBox="0 0 78 60" fill="none" xmlns="http://www.w3.org/2000/svg">
<path d="M61.75 17.5C61.75 14.75 58.825 12.5 55.25 12.5H45.5V17.5H55.25V24.125L43.94 35H32.5V22.5H19.5C12.3175 22.5 6.5 26.975 6.5 32.5V40H13C13 44.15 17.355 47.5 22.75 47.5C28.145 47.5 32.5 44.15 32.5 40H47.06L61.75 25.875V17.5ZM22.75 42.5C20.9625 42.5 19.5 41.375 19.5 40H26C26 41.375 24.5375 42.5 22.75 42.5Z" fill="#F7F0F0"/>
<path d="M32.5 15H16.25V20H32.5V15Z" fill="#F7F0F0"/>
<path d="M61.75 32.5C56.355 32.5 52 35.85 52 40C52 44.15 56.355 47.5 61.75 47.5C67.145 47.5 71.5 44.15 71.5 40C71.5 35.85 67.145 32.5 61.75 32.5ZM61.75 42.5C59.9625 42.5 58.5 41.375 58.5 40C58.5 38.625 59.9625 37.5 61.75 37.5C63.5375 37.5 65 38.625 65 40C65 41.375 63.5375 42.5 61.75 42.5Z" fill="#F7F0F0"/>
</svg>
